{"title":"Americas.Got.Talent.S09E04.HDTV.x264-FiNCH","uid":10383113,"size":878535889,"categoryP":"video","categoryS":"tv_shows","magnet":"?xt=urn:btih:40683203b6e211af91e11ee25a9689deebb38b38&amp;dn=Americas.Got.Talent.S09E04.HDTV.x264-FiNCH&amp;tr=udp%3A%2F%2Ftracker.openbittorrent.com%3A80&amp;tr=udp%3A%2F%2Fopen.demonii.com%3A1337&amp;tr=udp%3A%2F%2Ftracker.coppersurfer.tk%3A6969&amp;tr=udp%3A%2F%2Fexodus.desync.com%3A6969","seeders":1,"leechers":1,"uploader":"FiNCH","files":-1,"time":1403105962,"description":"*******************************************************************************\n                Americas.Got.Talent.S09E04.HDTV.x264-FiNCH\n*******************************************************************************\n\n-------------------------------------------------------------------------------\nGeneral Information\n-------------------------------------------------------------------------------\n\nFormat : MPEG-4\nFormat profile : Base Media\nCodec ID : isom\nFile size : 838 MiB\nDuration : 1h 24mn\nOverall bit rate : 1 378 Kbps\nEncoded date : UTC 2014-06-18 08:46:43\nTagged date : UTC 2014-06-18 13:30:19\nWriting application : mp4creator 1.6.1d\n\nVideo\nID : 1\nFormat : AVC\nFormat/Info : Advanced Video Codec\nFormat profile : &lt;a class=&quot;__cf_email__&quot; href=&quot;/cdn-cgi/l/email-protection&quot; data-cfemail=&quot;622a0b050a222e514c53&quot;&gt;[email&amp;#160;protected]&lt;/a&gt;&lt;script cf-hash='f9e31' type=&quot;text/javascript&quot;&gt;\n/* &lt;![CDATA[ */!function(){try{var t=&quot;currentScript&quot;in document?document.currentScript:function(){for(var t=document.getElementsByTagName(&quot;script&quot;),e=t.length;e--;)if(t[e].getAttribute(&quot;cf-hash&quot;))return t[e]}();if(t&amp;&amp;t.previousSibling){var e,r,n,i,c=t.previousSibling,a=c.getAttribute(&quot;data-cfemail&quot;);if(a){for(e=&quot;&quot;,r=parseInt(a.substr(0,2),16),n=2;a.length-n;n+=2)i=parseInt(a.substr(n,2),16)^r,e+=String.fromCharCode(i);e=document.createTextNode(e),c.parentNode.replaceChild(e,c)}}}catch(u){}}();/* ]]&gt; */&lt;/script&gt;\nFormat settings, CABAC : Yes\nFormat settings, ReFrames : 5 frames\nCodec ID : avc1\nCodec ID/Info : Advanced Video Coding\nDuration : 1h 24mn\nBit rate : 987 Kbps\nMaximum bit rate : 4 197 Kbps\nWidth : 720 pixels\nHeight : 404 pixels\nDisplay aspect ratio : 16:9\nFrame rate mode : Constant\nFrame rate : 29.970 fps\nColor space : YUV\nChroma subsampling : 4:2:0\nBit depth : 8 bits\nScan type : MBAFF\nBits/(Pixel*Frame) : 0.113\nStream size : 601 MiB (72%)\nWriting library : x264 core 138 r2358 9e941d1\n\nAudio\nID : 3\nFormat : AC-3\nFormat/Info : Audio Coding 3\nMode extension : CM (complete main)\nFormat settings, Endianness : Big\nCodec ID : ac-3\nDuration : 1h 24mn\nSource duration : 1h 24mn\nBit rate mode : Constant\nBit rate : 384 Kbps\nChannel(s) : 2 channels\nChannel positions : Front: L R\nSampling rate : 48.0 KHz\nBit depth : 16 bits\nCompression mode : Lossy\nStream size : 231 MiB (28%)\nSource stream size : 233 MiB (28%)\nLanguage : English\nEncoded date : UTC 2014-06-18 13:30:18\nTagged date : UTC 2014-06-18 13:30:19\n\n-------------------------------------------------------------------------------\n-------------------------------------------------------------------------------\n\nSCREENS\n          &lt;a href=&quot;\nhttp://postimg.org/image/80ox7v5gh/&quot; rel=&quot;nofollow&quot; target=&quot;_NEW&quot;&gt;\nhttp://postimg.org/image/80ox7v5gh/&lt;/a&gt; &lt;a href=&quot;\nhttp://postimg.org/image/txbg88in5/&quot; rel=&quot;nofollow&quot; target=&quot;_NEW&quot;&gt;\nhttp://postimg.org/image/txbg88in5/&lt;/a&gt; &lt;a href=&quot;\nhttp://postimg.org/image/wfx58x4dd/&quot; rel=&quot;nofollow&quot; target=&quot;_NEW&quot;&gt;\nhttp://postimg.org/image/wfx58x4dd/&lt;/a&gt; &lt;a href=&quot;\nhttp://postimg.org/image/blksr3a01/&quot; rel=&quot;nofollow&quot; target=&quot;_NEW&quot;&gt;\nhttp://postimg.org/image/blksr3a01/&lt;/a&gt; &lt;a href=&quot;\nhttp://postimg.org/image/ptahfqmox/&quot; rel=&quot;nofollow&quot; target=&quot;_NEW&quot;&gt;\nhttp://postimg.org/image/ptahfqmox/&lt;/a&gt;\n\n-------------------------------------------------------------------------------\n-------------------------------------------------------------------------------\n\nNOTES - I didn't feel like hearing people complain this week so I left the audio untouched.\n\t","torrent":{"xt":"urn:btih:40683203b6e211af91e11ee25a9689deebb38b38","amp;dn":"Americas.Got.Talent.S09E04.HDTV.x264-FiNCH","amp;tr":["udp%3A%2F%2Ftracker.openbittorrent.com%3A80","udp%3A%2F%2Fopen.demonii.com%3A1337","udp%3A%2F%2Ftracker.coppersurfer.tk%3A6969","udp%3A%2F%2Fexodus.desync.com%3A6969"],"infoHash":"40683203b6e211af91e11ee25a9689deebb38b38","infoHashBuffer":{"type":"Buffer","data":[64,104,50,3,182,226,17,175,145,225,30,226,90,150,137,222,235,179,139,56]},"announce":[],"urlList":[]}}